<svg width="66" height="24" viewBox="0 0 66 24" fill="none" xmlns="http://www.w3.org/2000/svg">
<path d="M26.1985 17V6.09091H30.1935C30.9677 6.09091 31.6087 6.21875 32.1165 6.47443C32.6243 6.72656 33.0043 7.06925 33.2564 7.50249C33.5085 7.93217 33.6346 8.4169 33.6346 8.95668C33.6346 9.41122 33.5511 9.79474 33.3842 10.1072C33.2173 10.4162 32.9936 10.6648 32.7131 10.853C32.4361 11.0376 32.1307 11.1726 31.7969 11.2578V11.3643C32.1591 11.3821 32.5124 11.4993 32.8569 11.7159C33.2049 11.929 33.4925 12.2326 33.7198 12.6268C33.9471 13.021 34.0607 13.5004 34.0607 14.065C34.0607 14.6225 33.9293 15.1232 33.6665 15.5671C33.4073 16.0075 33.006 16.3572 32.4627 16.6165C31.9194 16.8722 31.2251 17 30.38 17H26.1985ZM27.8445 15.5884H30.2202C31.0085 15.5884 31.5732 15.4357 31.9141 15.1303C32.255 14.8249 32.4254 14.4432 32.4254 13.9851C32.4254 13.6406 32.3384 13.3246 32.1644 13.0369C31.9904 12.7493 31.7418 12.5202 31.4187 12.3498C31.0991 12.1793 30.7191 12.0941 30.2788 12.0941H27.8445V15.5884ZM27.8445 10.8104H30.0497C30.419 10.8104 30.7511 10.7393 31.0458 10.5973C31.3441 10.4553 31.5803 10.2564 31.7543 10.0007C31.9318 9.74148 32.0206 9.43608 32.0206 9.08452C32.0206 8.63352 31.8626 8.25533 31.5465 7.94993C31.2305 7.64453 30.7457 7.49183 30.0923 7.49183H27.8445V10.8104ZM36.9345 17H35.1873L39.1131 6.09091H41.0147L44.9405 17H43.1934L40.1092 8.07244H40.024L36.9345 17ZM37.2275 12.728H42.8951V14.1129H37.2275V12.728ZM55.0639 9.63849H53.402C53.3381 9.28338 53.2191 8.97088 53.0451 8.70099C52.8711 8.43111 52.658 8.20206 52.4059 8.01385C52.1538 7.82564 51.8714 7.68359 51.5589 7.58771C51.25 7.49183 50.9215 7.44389 50.5735 7.44389C49.945 7.44389 49.3821 7.60192 48.8849 7.91797C48.3913 8.23402 48.0007 8.69744 47.7131 9.30824C47.429 9.91903 47.2869 10.6648 47.2869 11.5455C47.2869 12.4332 47.429 13.1825 47.7131 13.7933C48.0007 14.4041 48.3931 14.8658 48.8903 15.1783C49.3874 15.4908 49.9467 15.647 50.5682 15.647C50.9126 15.647 51.2393 15.6009 51.5483 15.5085C51.8608 15.4126 52.1431 15.2724 52.3952 15.0877C52.6474 14.9031 52.8604 14.6776 53.0344 14.4112C53.212 14.1413 53.3345 13.8324 53.402 13.4844L55.0639 13.4897C54.9751 14.0259 54.8029 14.5195 54.5472 14.9705C54.2951 15.418 53.9702 15.805 53.5724 16.1317C53.1783 16.4549 52.7273 16.7053 52.2195 16.8828C51.7116 17.0604 51.1577 17.1491 50.5575 17.1491C49.6129 17.1491 48.7713 16.9254 48.0327 16.478C47.294 16.027 46.7116 15.3825 46.2855 14.5444C45.8629 13.7063 45.6516 12.7067 45.6516 11.5455C45.6516 10.3807 45.8647 9.38104 46.2908 8.54652C46.717 7.70845 47.2994 7.0657 48.038 6.61825C48.7766 6.16726 49.6165 5.94176 50.5575 5.94176C51.1364 5.94176 51.6761 6.02521 52.1768 6.19212C52.6811 6.35547 53.1339 6.59695 53.5352 6.91655C53.9364 7.2326 54.2685 7.61967 54.5312 8.07777C54.794 8.53232 54.9716 9.05256 55.0639 9.63849ZM57.0335 17V6.09091H58.6794V11.3004H58.8126L63.3882 6.09091H65.4603L61.0605 11.0021L65.4763 17H63.4948L59.9685 12.1261L58.6794 13.6069V17H57.0335Z" fill="#193871"/>
<path d="M10.8284 12.0007L15.7782 16.9504L14.364 18.3646L8 12.0007L14.364 5.63672L15.7782 7.05093L10.8284 12.0007Z" fill="#193871"/>
</svg>
